<svg xmlns="http://www.w3.org/2000/svg" viewBox="0 0 1200 660" width="1200" height="660" font-family="Inter, Helvetica, Arial, sans-serif" font-size="22">
<defs><marker id="a-purple" viewBox="0 0 10 10" refX="9" refY="5" markerWidth="7" markerHeight="7" orient="auto-start-reverse"><path d="M 0 0 L 10 5 L 0 10 z" fill="#4b2e83"/></marker><marker id="a-red" viewBox="0 0 10 10" refX="9" refY="5" markerWidth="7" markerHeight="7" orient="auto-start-reverse"><path d="M 0 0 L 10 5 L 0 10 z" fill="#b3402a"/></marker><marker id="a-amber" viewBox="0 0 10 10" refX="9" refY="5" markerWidth="7" markerHeight="7" orient="auto-start-reverse"><path d="M 0 0 L 10 5 L 0 10 z" fill="#c77d00"/></marker><marker id="a-stone" viewBox="0 0 10 10" refX="9" refY="5" markerWidth="7" markerHeight="7" orient="auto-start-reverse"><path d="M 0 0 L 10 5 L 0 10 z" fill="#6f6890"/></marker></defs>
<rect x="400" y="30" width="400" height="70" rx="8" fill="#f5f3fb" stroke="#4b2e83" stroke-width="2"/>
<text x="600.0" y="59.3" text-anchor="middle" font-size="19" fill="#2a1a4f" font-weight="700">orchestrator</text>
<text x="600.0" y="84.0" text-anchor="middle" font-size="19" fill="#2a1a4f">goal: review one page as ten different readers</text>
<rect x="55" y="190" width="106" height="60" rx="8" fill="#fff" stroke="#4b2e83" stroke-width="2"/>
<text x="108.0" y="215.2" text-anchor="middle" font-size="16" fill="#2a1a4f">a</text>
<text x="108.0" y="236.0" text-anchor="middle" font-size="16" fill="#2a1a4f">hydrologist</text>
<line x1="600" y1="100" x2="108" y2="190" stroke="#6d5bd0" stroke-width="1.5" marker-end="url(#a-stone)"/>
<line x1="108" y1="250" x2="108" y2="300" stroke="#6f6890" stroke-width="1.5" marker-end="url(#a-stone)"/>
<path d="M 108 344 Q 108 385 600 400" fill="none" stroke="#4b2e83" stroke-width="1.5" marker-end="url(#a-purple)"/>
<rect x="165" y="190" width="106" height="60" rx="8" fill="#fff" stroke="#4b2e83" stroke-width="2"/>
<text x="218.0" y="215.2" text-anchor="middle" font-size="16" fill="#2a1a4f">a</text>
<text x="218.0" y="236.0" text-anchor="middle" font-size="16" fill="#2a1a4f">seismologist</text>
<line x1="600" y1="100" x2="218" y2="190" stroke="#6d5bd0" stroke-width="1.5" marker-end="url(#a-stone)"/>
<line x1="218" y1="250" x2="218" y2="300" stroke="#6f6890" stroke-width="1.5" marker-end="url(#a-stone)"/>
<path d="M 218 344 Q 218 385 600 400" fill="none" stroke="#4b2e83" stroke-width="1.5" marker-end="url(#a-purple)"/>
<rect x="275" y="190" width="106" height="60" rx="8" fill="#fff" stroke="#4b2e83" stroke-width="2"/>
<text x="328.0" y="215.2" text-anchor="middle" font-size="16" fill="#2a1a4f">a</text>
<text x="328.0" y="236.0" text-anchor="middle" font-size="16" fill="#2a1a4f">geodesist</text>
<line x1="600" y1="100" x2="328" y2="190" stroke="#6d5bd0" stroke-width="1.5" marker-end="url(#a-stone)"/>
<line x1="328" y1="250" x2="328" y2="300" stroke="#6f6890" stroke-width="1.5" marker-end="url(#a-stone)"/>
<path d="M 328 344 Q 328 385 600 400" fill="none" stroke="#4b2e83" stroke-width="1.5" marker-end="url(#a-purple)"/>
<rect x="385" y="190" width="106" height="60" rx="8" fill="#fff" stroke="#4b2e83" stroke-width="2"/>
<text x="438.0" y="215.2" text-anchor="middle" font-size="16" fill="#2a1a4f">a research</text>
<text x="438.0" y="236.0" text-anchor="middle" font-size="16" fill="#2a1a4f">engineer</text>
<line x1="600" y1="100" x2="438" y2="190" stroke="#6d5bd0" stroke-width="1.5" marker-end="url(#a-stone)"/>
<line x1="438" y1="250" x2="438" y2="300" stroke="#6f6890" stroke-width="1.5" marker-end="url(#a-stone)"/>
<path d="M 438 344 Q 438 385 600 400" fill="none" stroke="#4b2e83" stroke-width="1.5" marker-end="url(#a-purple)"/>
<rect x="495" y="190" width="106" height="60" rx="8" fill="#fff" stroke="#4b2e83" stroke-width="2"/>
<text x="548.0" y="215.2" text-anchor="middle" font-size="16" fill="#2a1a4f">a</text>
<text x="548.0" y="236.0" text-anchor="middle" font-size="16" fill="#2a1a4f">statistician</text>
<line x1="600" y1="100" x2="548" y2="190" stroke="#6d5bd0" stroke-width="1.5" marker-end="url(#a-stone)"/>
<line x1="548" y1="250" x2="548" y2="300" stroke="#6f6890" stroke-width="1.5" marker-end="url(#a-stone)"/>
<path d="M 548 344 Q 548 385 600 400" fill="none" stroke="#4b2e83" stroke-width="1.5" marker-end="url(#a-purple)"/>
<rect x="605" y="190" width="106" height="60" rx="8" fill="#fff" stroke="#4b2e83" stroke-width="2"/>
<text x="658.0" y="215.2" text-anchor="middle" font-size="16" fill="#2a1a4f">a data</text>
<text x="658.0" y="236.0" text-anchor="middle" font-size="16" fill="#2a1a4f">curator</text>
<line x1="600" y1="100" x2="658" y2="190" stroke="#6d5bd0" stroke-width="1.5" marker-end="url(#a-stone)"/>
<line x1="658" y1="250" x2="658" y2="300" stroke="#6f6890" stroke-width="1.5" marker-end="url(#a-stone)"/>
<path d="M 658 344 Q 658 385 600 400" fill="none" stroke="#4b2e83" stroke-width="1.5" marker-end="url(#a-purple)"/>
<rect x="715" y="190" width="106" height="60" rx="8" fill="#fff" stroke="#4b2e83" stroke-width="2"/>
<text x="768.0" y="215.2" text-anchor="middle" font-size="16" fill="#2a1a4f">a field</text>
<text x="768.0" y="236.0" text-anchor="middle" font-size="16" fill="#2a1a4f">engineer</text>
<line x1="600" y1="100" x2="768" y2="190" stroke="#6d5bd0" stroke-width="1.5" marker-end="url(#a-stone)"/>
<line x1="768" y1="250" x2="768" y2="300" stroke="#6f6890" stroke-width="1.5" marker-end="url(#a-stone)"/>
<path d="M 768 344 Q 768 385 600 400" fill="none" stroke="#4b2e83" stroke-width="1.5" marker-end="url(#a-purple)"/>
<rect x="825" y="190" width="106" height="60" rx="8" fill="#fff" stroke="#4b2e83" stroke-width="2"/>
<text x="878.0" y="215.2" text-anchor="middle" font-size="16" fill="#2a1a4f">a journal</text>
<text x="878.0" y="236.0" text-anchor="middle" font-size="16" fill="#2a1a4f">editor</text>
<line x1="600" y1="100" x2="878" y2="190" stroke="#6d5bd0" stroke-width="1.5" marker-end="url(#a-stone)"/>
<line x1="878" y1="250" x2="878" y2="300" stroke="#6f6890" stroke-width="1.5" marker-end="url(#a-stone)"/>
<path d="M 878 344 Q 878 385 600 400" fill="none" stroke="#4b2e83" stroke-width="1.5" marker-end="url(#a-purple)"/>
<rect x="935" y="190" width="106" height="60" rx="8" fill="#fff" stroke="#4b2e83" stroke-width="2"/>
<text x="988.0" y="215.2" text-anchor="middle" font-size="16" fill="#2a1a4f">a grad</text>
<text x="988.0" y="236.0" text-anchor="middle" font-size="16" fill="#2a1a4f">student</text>
<line x1="600" y1="100" x2="988" y2="190" stroke="#6d5bd0" stroke-width="1.5" marker-end="url(#a-stone)"/>
<line x1="988" y1="250" x2="988" y2="300" stroke="#6f6890" stroke-width="1.5" marker-end="url(#a-stone)"/>
<path d="M 988 344 Q 988 385 600 400" fill="none" stroke="#4b2e83" stroke-width="1.5" marker-end="url(#a-purple)"/>
<rect x="1045" y="190" width="106" height="60" rx="8" fill="#fff" stroke="#4b2e83" stroke-width="2"/>
<text x="1098.0" y="215.2" text-anchor="middle" font-size="16" fill="#2a1a4f">emergency</text>
<text x="1098.0" y="236.0" text-anchor="middle" font-size="16" fill="#2a1a4f">manager</text>
<line x1="600" y1="100" x2="1098" y2="190" stroke="#6d5bd0" stroke-width="1.5" marker-end="url(#a-stone)"/>
<line x1="1098" y1="250" x2="1098" y2="300" stroke="#6f6890" stroke-width="1.5" marker-end="url(#a-stone)"/>
<path d="M 1098 344 Q 1098 385 600 400" fill="none" stroke="#4b2e83" stroke-width="1.5" marker-end="url(#a-purple)"/>
<text x="600" y="165" text-anchor="middle" font-size="18" fill="#6f6890" font-style="italic">ten readers, chosen for the page; in parallel; none sees another&#x27;s output</text>
<rect x="55" y="300" width="1090" height="44" rx="6" fill="#f5f3fb" stroke="#6d5bd0" stroke-width="2"/>
<text x="600.0" y="327.9" text-anchor="middle" font-size="17" fill="#2a1a4f">one shared rubric and method: eight dimensions · severity · evidence rules · report format</text>
<rect x="400" y="400" width="400" height="96" rx="8" fill="#fff" stroke="#4b2e83" stroke-width="2"/>
<text x="600.0" y="422.4" text-anchor="middle" font-size="16" fill="#2a1a4f" font-weight="700">synthesis</text>
<text x="600.0" y="443.2" text-anchor="middle" font-size="16" fill="#2a1a4f">convergent (3+ readers) · divergent, kept divergent ·</text>
<text x="600.0" y="464.0" text-anchor="middle" font-size="16" fill="#2a1a4f">blocker table · cheap wins · pages nobody visited</text>
<text x="600.0" y="484.8" text-anchor="middle" font-size="16" fill="#2a1a4f">scores as a table, never an average</text>
<text x="60" y="540" text-anchor="start" font-size="20" fill="#4b2e83" font-weight="700">Orchestrator</text>
<text x="640" y="540" text-anchor="start" font-size="20" fill="#4b2e83" font-weight="700">Specialist</text>
<text x="60" y="572" text-anchor="start" font-size="17" fill="#2a1a4f">• broad goal; decides what to dispatch</text>
<text x="640" y="572" text-anchor="start" font-size="17" fill="#2a1a4f">• narrow role, fixed weights, own vocabulary</text>
<text x="60" y="600" text-anchor="start" font-size="17" fill="#2a1a4f">• holds only the ten reports</text>
<text x="640" y="600" text-anchor="start" font-size="17" fill="#2a1a4f">• holds the whole page, for its timebox</text>
<text x="60" y="628" text-anchor="start" font-size="17" fill="#2a1a4f">• dispatch · merge · gate outward actions</text>
<text x="640" y="628" text-anchor="start" font-size="17" fill="#2a1a4f">• fetch · read · write one file</text>
</svg>
